<?xml version="1.0" standalone="no"?>
<!DOCTYPE svg PUBLIC "-//W3C//DTD SVG 20010904//EN"
 "http://www.w3.org/TR/2001/REC-SVG-20010904/DTD/svg10.dtd">
<svg version="1.0" xmlns="http://www.w3.org/2000/svg"
 width="1280.000000pt" height="640.000000pt" viewBox="0 0 1280.000000 640.000000"
 preserveAspectRatio="xMidYMid meet">
<metadata>
Created by potrace 1.15, written by Peter Selinger 2001-2017
</metadata>
<g transform="translate(0.000000,640.000000) scale(0.100000,-0.100000)"
fill="#9c27b0" stroke="none">
<path d="M5242 5656 c-217 -42 -292 -81 -603 -312 -323 -240 -557 -448 -1088
-963 l-294 -286 -196 -31 c-108 -18 -335 -53 -506 -79 -848 -129 -1446 -274
-1780 -434 -208 -99 -393 -237 -449 -335 -35 -59 -50 -121 -36 -147 10 -17 8
-21 -10 -26 -19 -5 -22 -11 -17 -44 4 -28 1 -39 -10 -43 -12 -5 -14 -16 -9
-44 4 -30 2 -41 -14 -55 -22 -19 -25 -39 -10 -67 8 -15 6 -21 -9 -30 -11 -5
-21 -20 -23 -32 -2 -16 -17 -28 -55 -43 -61 -24 -108 -57 -123 -85 -8 -15 -6
-24 9 -39 11 -11 21 -36 22 -56 3 -29 -1 -40 -20 -54 l-24 -18 56 -249 56
-248 -25 -29 c-52 -62 -7 -157 76 -157 16 0 20 -6 20 -34 0 -27 -7 -38 -34
-57 -162 -111 -10 -250 299 -274 44 -3 103 -8 132 -11 l52 -5 3 -52 c3 -49 5
-52 33 -58 50 -11 237 -10 277 1 25 7 50 26 75 55 l37 45 97 0 c92 0 96 -1
107 -25 28 -62 114 -177 190 -257 299 -311 736 -416 1146 -276 291 100 543
342 657 631 31 81 26 79 152 63 l57 -7 0 -54 c0 -36 6 -60 18 -75 l18 -22 500
1 c274 1 1064 6 1754 11 690 5 1833 12 2540 16 707 4 1295 11 1308 15 23 9 36
32 46 82 l6 27 90 0 c66 0 90 -3 90 -13 0 -26 111 -235 159 -298 158 -208 386
-354 647 -415 109 -26 347 -26 458 0 209 48 377 139 532 288 100 96 169 194
235 333 l51 105 131 0 c163 0 202 10 229 56 l20 34 128 0 c145 0 140 -3 140
86 l0 54 62 -3 62 -2 32 47 c31 46 84 185 84 221 0 15 -42 48 -75 61 -5 2 2
15 18 29 22 22 27 34 27 76 0 36 -5 53 -17 59 -15 9 -15 13 3 48 16 33 19 61
19 194 0 98 -5 175 -14 208 -18 73 -68 124 -141 145 -30 9 -84 34 -120 55
l-65 40 -17 203 c-19 222 -50 452 -73 539 -19 72 -21 67 23 80 105 34 109 68
17 156 -36 34 -65 68 -65 75 0 28 -88 145 -158 208 -73 67 -84 91 -41 91 29 0
122 46 147 73 49 52 45 147 -12 241 -20 33 -54 107 -77 165 -22 59 -51 116
-64 128 -53 47 -212 39 -455 -24 -200 -52 -209 -53 -423 -68 -165 -11 -203
-17 -232 -34 l-35 -20 -6 27 c-47 212 -174 546 -257 675 -41 64 -88 94 -131
83 -40 -10 -93 -62 -111 -110 -15 -39 -15 -49 -1 -125 19 -100 19 -91 3 -91
-8 0 -35 -14 -62 -32 -68 -45 -96 -111 -103 -240 -4 -81 -2 -102 12 -124 26
-39 74 -54 176 -54 49 0 90 -4 90 -9 0 -5 3 -16 6 -25 4 -10 1 -16 -9 -16 -8
0 -46 -9 -83 -21 -104 -32 -125 -59 -158 -200 l-27 -116 -152 -7 c-84 -4 -195
-11 -247 -16 -116 -12 -467 -38 -1115 -84 -269 -20 -509 -37 -531 -39 l-42 -4
-6 55 c-6 49 -31 111 -46 112 -3 1 -16 10 -29 20 -31 27 -22 62 24 90 75 46
125 154 125 270 0 118 -36 197 -117 260 -40 30 -55 35 -112 38 -61 4 -70 1
-116 -30 -65 -43 -109 -117 -126 -208 -10 -60 -10 -79 5 -137 22 -89 61 -151
118 -188 26 -16 47 -35 47 -40 1 -6 -18 -16 -41 -23 -92 -25 -133 -68 -165
-172 -9 -30 -20 -59 -23 -63 -6 -7 -167 -13 -1370 -52 -256 -8 -515 -17 -575
-21 l-110 -6 -70 172 c-38 94 -80 187 -93 207 -25 37 -74 63 -117 63 -32 0
-75 -41 -75 -72 0 -22 -4 -23 -72 -23 -67 0 -81 -4 -170 -48 -149 -74 -232
-178 -214 -268 8 -43 -18 -59 -102 -59 -40 0 -72 3 -72 6 0 10 505 637 632
784 155 179 297 318 406 394 52 36 80 62 75 69 -39 65 -139 194 -187 243 -44
44 -77 67 -118 82 -75 28 -193 35 -286 18z m208 -92 c19 -13 62 -49 95 -80
l60 -55 -140 6 c-132 5 -399 29 -474 41 l-34 5 54 26 c132 61 294 98 374 86
17 -3 46 -16 65 -29z m-265 -140 c105 -8 191 -17 192 -18 1 -1 -284 -315 -633
-697 l-636 -694 -142 1 c-78 0 -194 8 -261 18 -147 21 -345 66 -345 77 0 16
32 10 247 -41 97 -24 167 -25 260 -6 197 42 279 87 441 241 91 87 983 1046
990 1064 1 4 -28 11 -65 14 -37 3 -134 13 -215 23 -127 15 -146 19 -136 32 9
10 25 13 63 8 27 -3 136 -13 240 -22z m5443 -7 c18 -19 112 -204 112 -221 0
-3 -27 -6 -61 -6 -53 0 -62 3 -66 21 -3 11 -24 58 -45 102 l-40 82 27 22 c33
29 46 29 73 0z m-5009 -34 c3 -2 -85 -95 -195 -206 -208 -209 -239 -246 -694
-812 l-273 -340 -56 -8 c-31 -4 -97 -6 -147 -5 l-91 3 634 693 635 693 91 -7
c51 -3 94 -8 96 -11z m-596 -15 c108 -12 196 -25 195 -30 -7 -19 -880 -957
-952 -1022 -121 -109 -187 -152 -280 -180 -188 -56 -240 -58 -431 -14 -77 17
-142 33 -144 35 -5 3 304 303 499 485 256 239 490 437 733 620 93 70 172 128
176 128 3 0 95 -10 204 -22z m702 -18 c16 -16 27 -31 24 -33 -2 -2 -44 -36
-94 -74 -142 -112 -261 -247 -864 -985 l-194 -238 -43 0 c-24 0 -44 2 -44 5 0
5 538 678 668 834 82 99 496 520 513 521 3 0 18 -13 34 -30z m4834 -103 c24
-66 27 -91 9 -85 -14 5 -46 99 -47 138 -1 34 13 15 38 -53z m234 -179 c38 -98
77 -207 77 -218 0 -3 -26 -4 -59 -2 -33 2 -67 -1 -80 -7 -20 -11 -21 -9 -21
26 0 21 7 56 15 79 19 56 11 78 -45 114 -49 31 -60 46 -60 81 0 17 8 19 68 19
l69 0 36 -92z m-189 12 c15 -23 42 -48 61 -57 40 -19 43 -37 21 -102 -11 -29
-16 -101 -18 -262 -3 -218 -3 -221 20 -239 14 -11 22 -29 22 -48 l0 -29 -127
-12 c-71 -6 -146 -11 -167 -11 l-39 0 7 73 c9 99 38 156 96 185 24 12 59 22
76 22 18 0 44 4 58 10 25 9 26 13 26 85 0 87 8 82 -140 88 -52 2 -106 9 -119
16 -22 12 -23 17 -19 99 5 93 25 148 70 188 30 28 44 32 99 33 43 1 48 -2 73
-39z m-2491 -104 c75 -31 137 -143 137 -246 0 -139 -94 -260 -203 -260 -52 0
-117 48 -151 110 -34 62 -46 167 -27 235 35 131 144 203 244 161z m3973 -167
c13 -13 37 -109 27 -109 -2 0 -15 7 -29 16 -40 27 -108 14 -230 -44 -204 -96
-282 -120 -451 -138 l-152 -17 -50 37 c-27 20 -80 49 -117 64 -123 51 -104 61
166 91 272 30 331 39 445 68 55 14 132 32 170 39 85 16 201 12 221 -7z m-1245
-5 c17 -8 37 -30 45 -49 11 -28 44 -298 44 -366 0 -19 -19 -25 -112 -35 l-68
-7 0 31 c0 17 -11 48 -25 68 -24 35 -25 44 -25 174 0 136 0 136 28 162 44 41
68 46 113 22z m1213 -114 c31 -12 49 -45 42 -76 -14 -53 -182 -89 -386 -82
l-95 3 80 29 c44 16 119 49 167 74 73 37 119 55 160 61 4 1 18 -3 32 -9z m96
-61 c0 -22 -10 -41 -36 -67 -20 -20 -37 -43 -39 -51 -2 -19 -174 -84 -280
-106 -129 -26 -275 -31 -329 -11 -87 33 -60 73 61 87 43 5 161 13 263 18 184
10 225 18 298 59 26 15 53 68 45 89 -3 7 0 13 6 13 6 0 11 -14 11 -31z m-1027
-60 c23 -12 62 -36 86 -53 41 -29 48 -31 122 -29 l78 3 -15 -28 c-17 -34 -10
-60 24 -89 l27 -23 -41 0 c-23 0 -62 -3 -87 -6 -42 -6 -49 -4 -78 25 -25 26
-30 37 -26 61 8 38 -17 69 -93 115 -33 20 -60 38 -60 41 0 9 23 3 63 -17z
m1081 -25 c9 -20 16 -37 14 -39 -2 -1 -22 0 -45 3 l-42 4 22 34 c12 19 25 34
28 34 3 0 13 -16 23 -36z m-1107 -63 c79 -54 71 -68 -42 -72 l-60 -3 -3 73 -3
74 28 -18 c15 -10 51 -34 80 -54z m1105 -26 c16 -36 -10 -68 -84 -103 -46 -22
-85 -32 -143 -36 -103 -9 -164 -23 -249 -58 -51 -21 -84 -28 -130 -27 -43 0
-55 3 -41 9 11 5 32 9 46 9 41 1 82 39 77 71 -4 26 -3 27 69 38 71 11 293 81
343 108 14 7 42 13 63 14 30 0 40 -5 49 -25z m-6728 -24 c13 -15 148 -333 143
-337 -1 -1 -27 -4 -58 -8 l-56 -6 -5 84 c-4 71 -10 95 -41 159 -41 85 -48 127
-19 127 11 0 27 -8 36 -19z m-113 -54 c62 -42 98 -127 100 -241 2 -78 -15
-109 -72 -138 -87 -45 -330 4 -426 86 -43 36 -44 76 -2 139 36 54 101 104 190
147 82 39 159 41 210 7z m2704 -18 c21 -6 54 -26 72 -44 28 -28 33 -40 33 -83
l0 -49 -47 -6 c-100 -13 -313 -20 -313 -10 0 27 44 133 62 149 25 24 95 53
128 53 14 1 43 -4 65 -10z m3148 -14 c-3 -11 -33 -15 -383 -45 -135 -11 -475
-41 -757 -65 -282 -25 -515 -45 -518 -45 -3 0 -5 -6 -5 -13 0 -17 -216 -28
-515 -26 -242 2 -236 3 465 54 434 32 1502 130 1625 150 38 6 90 0 88 -10z
m422 -34 c0 -10 -22 -19 -65 -29 -36 -8 -76 -22 -90 -32 -27 -19 4 -18 -1205
-44 -115 -3 -203 -3 -195 -1 15 5 344 31 1040 85 217 17 402 32 410 34 8 2 35
3 60 3 32 -2 45 -6 45 -16z m356 -51 c-19 -17 -38 -20 -110 -19 -68 0 -81 2
-61 10 27 11 117 26 165 27 l30 1 -24 -19z m73 -68 c8 -13 -380 -22 -824 -20
-416 2 -401 4 170 17 516 11 648 12 654 3z m-221 -62 c79 -30 178 -140 261
-291 62 -113 128 -315 160 -489 16 -83 46 -332 46 -377 l0 -23 -186 0 -186 0
-111 96 c-167 144 -304 232 -432 278 -258 92 -544 114 -796 62 -359 -75 -727
-329 -967 -668 -58 -82 -133 -238 -172 -358 -30 -91 -90 -362 -90 -406 0 -21
0 -21 -592 -27 -326 -3 -594 -4 -597 -2 -2 3 19 89 47 192 57 212 77 314 126
658 70 486 79 570 73 720 -10 264 -55 376 -220 546 l-54 57 46 6 c59 7 2519
41 3233 44 337 2 360 1 411 -18z m312 -52 c77 -81 122 -166 106 -197 -15 -27
-13 -98 4 -146 28 -76 97 -642 94 -759 -2 -48 -6 -22 -38 244 -30 240 -90 460
-163 590 -47 84 -152 231 -206 289 l-48 51 92 0 92 0 67 -72z m-3863 -198
c110 -160 123 -376 54 -900 -66 -504 -106 -709 -194 -995 l-18 -60 -540 -6
c-296 -4 -1115 -12 -1819 -18 -704 -6 -1377 -13 -1496 -16 l-216 -6 -7 68
c-30 314 -37 441 -43 738 -8 441 13 677 82 932 35 127 57 175 105 227 54 58
122 84 254 96 124 11 327 18 323 11 -33 -63 -39 -82 -33 -105 15 -59 161 -118
296 -119 95 0 142 17 194 72 27 28 29 34 23 91 l-5 60 59 0 c63 0 106 16 149
55 29 26 -28 23 1110 50 1216 28 1515 37 1520 42 8 8 160 -156 202 -217z
m-4822 161 c202 -41 412 -71 511 -72 78 -2 74 -2 -41 -10 -69 -4 -264 -12
-435 -19 -370 -13 -703 -41 -1436 -121 -55 -6 -102 -9 -105 -6 -13 12 608 121
926 162 342 43 380 50 403 74 12 11 24 21 27 21 3 0 71 -13 150 -29z m1500
-11 c51 -33 133 -64 197 -75 45 -7 53 -20 53 -85 0 -67 -102 -118 -210 -106
-123 15 -225 62 -225 104 0 17 120 190 134 191 2 1 25 -12 51 -29z m-776 -134
c-22 -19 -55 -61 -72 -94 l-32 -60 -93 -6 c-50 -3 -238 -8 -416 -11 l-323 -6
21 28 c11 15 47 56 78 91 l58 62 310 10 c171 6 330 12 355 14 25 1 69 3 99 4
l55 2 -40 -34z m-870 -38 c-22 -24 -133 -148 -248 -275 -114 -128 -213 -233
-220 -233 -7 0 -39 11 -72 24 -124 51 -284 79 -478 84 -209 5 -341 -7 -503
-49 -361 -92 -656 -297 -845 -585 l-62 -94 -199 0 -200 0 28 22 c20 15 30 18
33 10 7 -21 48 -13 93 19 105 75 397 406 520 589 36 54 88 140 114 192 26 51
49 94 50 95 12 16 605 121 855 152 197 25 571 56 840 71 177 9 237 13 309 18
22 2 21 -1 -15 -40z m9039 -45 c21 -24 10 -37 -40 -48 l-33 -7 0 57 0 56 28
-19 c15 -11 35 -29 45 -39z m-8313 -220 c-43 -167 -71 -384 -77 -603 -6 -203
10 -717 26 -855 6 -44 13 -120 17 -168 l6 -88 -123 3 -124 3 -3 50 c-8 171
-71 427 -148 607 -135 315 -393 610 -655 748 l-70 37 158 176 157 177 76 1
c63 1 408 10 711 17 l76 2 -27 -107z m-2820 -70 c-67 -132 -113 -196 -261
-369 -193 -225 -379 -400 -379 -356 0 4 16 16 36 27 52 28 200 191 358 395
133 172 202 286 213 355 4 27 13 37 42 49 20 8 40 15 44 15 5 1 -19 -52 -53
-116z m-140 49 c-138 -108 -296 -263 -358 -354 -39 -57 -102 -183 -138 -278
-36 -96 -60 -131 -117 -175 -25 -19 -47 -35 -49 -35 -2 0 4 69 15 152 10 84
15 163 12 176 -3 12 -21 40 -41 62 -35 38 -35 39 -19 70 58 111 326 273 630
380 101 36 108 36 65 2z m59 -29 c-26 -70 -80 -151 -207 -314 -149 -190 -317
-379 -338 -379 -34 0 50 188 150 335 93 138 349 385 397 385 5 0 4 -12 -2 -27z
m1481 -161 c99 -26 186 -56 199 -67 2 -2 -37 -49 -85 -105 -67 -76 -94 -100
-109 -97 -11 3 -67 15 -125 27 -149 33 -409 34 -557 2 -250 -54 -445 -156
-617 -322 l-93 -90 -146 0 c-81 0 -147 3 -147 6 0 22 132 186 220 274 219 220
474 343 815 395 62 10 159 13 310 11 209 -3 226 -5 335 -34z m8528 -33 c246
-47 489 -169 675 -339 37 -34 67 -65 67 -69 0 -5 -39 -38 -86 -74 l-87 -67
-56 52 c-31 28 -96 78 -146 110 -185 120 -349 166 -631 175 -202 7 -300 -3
-429 -44 -243 -77 -451 -247 -620 -507 -113 -174 -176 -331 -217 -541 l-22
-115 -98 0 c-115 0 -109 -13 -77 155 73 388 198 622 474 883 241 228 539 371
835 401 115 12 293 3 418 -20z m-8200 -103 c121 -75 212 -149 317 -258 275
-285 417 -610 459 -1056 l5 -53 -122 3 -122 3 -2 45 c-14 277 -104 570 -228
745 -103 145 -312 309 -487 381 l-87 36 87 99 c48 54 92 99 97 99 6 0 43 -20
83 -44z m-528 -131 c323 -49 622 -218 788 -443 75 -102 108 -167 152 -301 62
-188 80 -315 87 -592 l6 -237 -75 15 -75 15 9 41 c46 204 17 474 -73 674 -79
176 -241 366 -404 475 -210 139 -477 206 -713 180 -465 -52 -839 -361 -966
-797 -66 -226 -54 -507 29 -707 6 -16 -1 -18 -89 -18 l-97 0 -18 -44 c-11 -24
-27 -46 -36 -50 -9 -3 -73 -6 -141 -6 l-124 0 0 35 0 34 123 3 122 3 8 75 c66
621 103 804 207 1026 127 274 387 489 699 580 184 53 395 68 581 39z m-2031
-31 c30 -38 28 -64 -5 -64 -23 0 -25 3 -19 29 3 17 2 32 -4 36 -6 3 -11 10
-11 16 0 17 18 9 39 -17z m10530 16 c274 -19 466 -83 647 -218 105 -78 226
-209 293 -316 97 -157 200 -449 214 -611 9 -101 10 -102 152 -128 44 -8 122
-29 173 -47 l92 -33 0 -58 0 -58 -132 -3 c-127 -3 -133 -4 -136 -24 -2 -12
-12 -30 -23 -40 -18 -16 -36 -18 -131 -17 -61 1 -112 4 -114 5 -1 2 3 32 11
68 44 215 18 454 -71 662 -46 107 -145 255 -228 341 -311 318 -776 429 -1186
281 -400 -143 -678 -479 -749 -905 -19 -115 -13 -279 14 -406 5 -22 3 -23 -60
-23 l-65 0 0 118 c0 239 64 538 151 710 220 432 524 663 919 702 41 4 77 8 80
8 3 1 70 -3 149 -8z m1065 -257 c97 -115 158 -241 297 -616 46 -126 80 -202
97 -220 58 -62 121 -73 170 -32 38 31 127 36 161 7 l22 -17 -32 -85 c-18 -47
-37 -88 -43 -92 -6 -4 -45 -8 -86 -8 -62 0 -90 6 -161 34 -90 35 -153 52 -231
61 -55 7 -63 17 -71 90 -10 84 -93 357 -143 467 -53 116 -135 246 -188 297
-20 19 -36 38 -36 42 0 8 169 139 180 139 4 0 33 -30 64 -67z m358 49 c18 -25
128 -99 196 -130 l57 -27 -80 -3 c-97 -4 -220 11 -345 43 -88 22 -97 27 -149
79 l-56 56 182 0 c164 0 183 -2 195 -18z m-10002 -12 c227 -28 443 -129 609
-285 126 -118 247 -323 293 -495 19 -73 22 -110 23 -265 0 -213 -15 -285 -95
-451 -146 -303 -405 -505 -744 -581 -47 -10 -118 -16 -211 -15 -119 0 -155 4
-239 26 -197 53 -336 129 -473 260 -175 165 -280 364 -318 601 -27 162 -13
327 40 488 93 286 333 541 608 648 180 69 334 90 507 69z m8731 -15 c440 -93
778 -467 830 -919 52 -453 -215 -902 -642 -1081 -32 -14 -105 -37 -161 -52
-87 -22 -124 -26 -243 -26 -119 0 -156 4 -243 26 -114 30 -195 61 -274 108
-273 160 -445 399 -514 712 -20 87 -22 296 -5 385 90 470 457 807 941 866 59
7 239 -4 311 -19z m1124 -137 c2 -2 14 -25 28 -53 76 -150 241 -332 342 -377
33 -14 68 -29 78 -32 9 -3 17 -15 17 -28 0 -23 -2 -23 -126 -23 -120 0 -127
-1 -145 -24 -26 -32 -24 -67 6 -96 22 -23 31 -25 125 -25 82 0 100 -3 100 -15
0 -9 -9 -15 -23 -15 -12 0 -39 -14 -60 -31 -34 -28 -40 -30 -72 -19 -35 12
-75 51 -100 99 -7 15 -39 101 -70 192 -68 197 -135 359 -175 423 -17 26 -30
48 -30 50 0 3 101 -22 105 -26z m-11812 -8 c5 -19 0 -20 -64 -20 -56 0 -67 3
-63 15 4 9 25 15 62 18 32 2 58 4 58 5 1 1 4 -7 7 -18z m12089 -17 c128 -4
193 -10 205 -18 14 -10 20 -40 29 -142 15 -156 9 -253 -15 -253 -10 0 -53 17
-97 39 -63 31 -95 55 -160 122 -77 81 -142 166 -179 238 l-17 34 24 -7 c12 -4
107 -10 210 -13z m-11672 -146 c-55 -115 -96 -246 -111 -357 -30 -207 -50
-314 -69 -350 -27 -54 -71 -75 -146 -71 -19 1 -21 9 -27 99 -8 120 -28 182
-73 222 -36 31 -40 32 -179 34 l-80 1 -21 105 -21 105 28 5 c54 10 74 41 109
178 10 41 12 42 51 42 35 0 40 -3 34 -17 -32 -78 -31 -179 2 -235 15 -25 26
-33 48 -33 69 0 97 152 50 268 -7 16 5 17 181 15 173 -3 189 -2 192 15 3 16
-18 17 -329 17 -352 0 -357 1 -264 43 45 21 57 22 360 19 l314 -3 -49 -102z
m380 97 c0 -3 -9 -19 -21 -35 -108 -152 -205 -548 -246 -1003 l-17 -189 -245
6 c-259 6 -357 20 -436 59 -94 48 -99 77 -17 102 82 26 140 58 196 107 46 41
54 44 107 45 63 1 110 23 141 64 26 35 43 106 72 300 30 200 61 309 126 446
l49 104 145 0 c80 0 146 -3 146 -6z m-1000 -91 c0 -14 -21 -87 -36 -130 -15
-40 -18 -43 -52 -43 -32 1 -35 2 -17 12 31 17 45 39 45 74 0 18 -6 35 -12 38
-10 3 -8 9 5 19 9 8 17 19 17 26 0 6 11 11 25 11 14 0 25 -3 25 -7z m12523
-404 c12 -47 4 -50 -141 -47 -113 3 -137 6 -145 20 -8 12 -7 21 2 32 11 13 37
16 146 16 126 0 133 -1 138 -21z m-12359 -82 l26 -18 -22 -30 c-20 -27 -23
-42 -21 -111 1 -71 5 -86 33 -130 17 -28 29 -52 28 -53 -24 -21 -124 -85 -133
-85 -7 0 -15 19 -19 43 -4 23 -9 52 -13 65 -4 19 -1 22 25 22 52 0 80 62 48
105 -9 13 -31 21 -67 25 l-53 5 -22 75 c-36 119 -39 113 70 108 66 -3 101 -9
120 -21z m67 -165 c6 -43 9 -94 7 -113 l-3 -34 -23 37 c-28 46 -41 162 -22
198 11 20 14 21 21 7 5 -8 14 -51 20 -95z m9174 -172 c-6 -155 -21 -276 -35
-285 -7 -4 -898 -13 -3535 -35 -660 -5 -1493 -13 -1851 -16 l-651 -7 -11 74
c-7 41 -13 140 -14 220 l-3 147 490 6 c270 3 967 11 1550 16 1731 16 3420 31
3725 33 157 1 297 2 313 3 l27 0 -5 -156z m-9315 105 c0 -24 -2 -25 -75 -25
-73 0 -75 1 -75 25 0 24 2 25 75 25 73 0 75 -1 75 -25z"/>
<path d="M11829 3959 c-26 -26 -21 -60 23 -156 50 -110 145 -376 177 -496 42
-156 58 -198 88 -229 22 -23 35 -28 76 -28 76 0 87 10 87 80 0 111 -70 415
-132 571 -39 101 -121 225 -167 256 -46 31 -122 32 -152 2z"/>
<path d="M7545 3714 c-47 -17 -88 -55 -110 -100 -12 -25 -22 -34 -41 -34 -31
0 -94 -26 -94 -39 0 -17 43 -41 83 -48 31 -5 41 -13 56 -42 11 -20 27 -43 37
-52 100 -88 279 -53 323 64 9 24 15 27 59 27 52 0 72 12 72 45 0 32 -20 45
-71 45 -42 0 -48 3 -59 30 -17 41 -81 97 -127 109 -49 14 -79 13 -128 -5z
m131 -34 c33 -13 96 -78 89 -91 -4 -5 -71 -9 -151 -9 -156 0 -163 3 -124 52
39 51 122 72 186 48z m77 -221 c-51 -87 -174 -100 -250 -27 -57 55 -50 58 118
58 l150 0 -18 -31z"/>
<path d="M3294 3609 c-48 -14 -127 -71 -142 -102 -18 -37 -9 -71 23 -85 18 -8
120 -12 335 -12 l310 0 30 28 c57 50 42 146 -26 172 -32 12 -488 11 -530 -1z
m536 -49 c24 -24 26 -57 4 -88 -15 -22 -16 -22 -329 -22 -217 0 -316 3 -321
11 -16 26 49 90 112 109 16 4 138 9 272 9 229 1 243 0 262 -19z"/>
<path d="M3682 3554 c-25 -17 -29 -56 -7 -74 46 -38 155 -13 155 35 0 47 -99
73 -148 39z"/>
<path d="M2120 2623 c-130 -22 -281 -88 -382 -168 -120 -94 -234 -270 -275
-425 -28 -102 -25 -313 6 -410 139 -450 590 -682 1028 -531 290 100 488 351
524 664 28 238 -59 476 -237 646 -124 120 -240 181 -405 216 -65 14 -200 18
-259 8z m268 -47 c5 -3 0 -58 -12 -128 l-20 -123 -16 65 c-27 105 -49 134
-102 132 -49 -1 -75 -34 -89 -116 -7 -39 -15 -77 -19 -84 -5 -11 -31 195 -30
245 0 6 10 14 23 17 28 6 253 0 265 -8z m-323 -65 c7 -64 3 -81 -22 -81 -8 0
-52 -19 -96 -42 -59 -30 -104 -64 -158 -118 l-77 -76 -56 28 -57 29 32 40 c46
59 115 126 165 160 71 49 212 114 256 118 3 1 9 -26 13 -58z m490 -1 c103 -51
215 -139 275 -215 l31 -39 -57 -29 -57 -29 -56 60 c-62 67 -160 134 -233 160
-34 12 -47 21 -44 32 3 8 8 36 12 63 3 26 11 47 18 47 6 0 56 -22 111 -50z
m-287 -38 c11 -11 29 -67 46 -148 38 -174 62 -247 87 -270 23 -21 33 -21 253
-4 161 13 196 7 196 -29 0 -30 -32 -55 -174 -134 -149 -84 -186 -119 -186
-178 0 -23 9 -58 20 -78 11 -20 42 -85 70 -146 58 -126 63 -168 18 -173 -21
-3 -51 18 -148 100 -68 57 -137 113 -154 126 -67 49 -126 20 -281 -137 -98
-100 -126 -116 -153 -89 -7 7 -12 19 -12 28 0 8 32 95 71 193 75 187 78 208
44 261 -9 13 -46 38 -83 56 -79 37 -247 137 -263 156 -16 20 -1 53 29 61 23 5
191 -6 335 -23 28 -4 60 -1 78 6 39 17 79 65 79 97 0 14 14 91 30 172 35 168
54 197 98 153z m-178 -202 c7 -71 10 -136 6 -145 -3 -9 -26 -25 -50 -36 -45
-19 -46 -19 -98 0 -70 25 -188 81 -188 89 0 14 101 112 147 143 41 28 145 78
164 79 4 0 12 -58 19 -130z m408 88 c67 -33 202 -151 202 -176 0 -20 -200
-113 -234 -110 -62 6 -86 86 -71 243 8 89 9 89 103 43z m420 -206 c32 -71 46
-119 61 -196 7 -38 6 -46 -8 -50 -20 -6 -247 -46 -258 -46 -4 0 25 19 64 41
110 61 136 111 89 166 -24 28 -25 28 -133 26 l-108 -2 125 64 c69 35 128 64
131 64 4 1 20 -30 37 -67z m-1213 3 l110 -54 -85 5 c-95 6 -125 -4 -149 -47
-25 -45 -2 -81 90 -135 43 -25 81 -49 83 -53 6 -9 -262 23 -271 32 -20 20 74
308 100 306 7 0 62 -24 122 -54z m1282 -367 c-3 -46 -13 -110 -21 -143 -19
-70 -84 -207 -120 -250 l-25 -30 -45 45 -45 45 38 63 c45 75 77 171 86 263 l6
66 57 10 c31 6 61 11 66 12 5 0 6 -35 3 -81z m-1399 56 c19 -4 22 -11 22 -47
1 -86 39 -203 97 -296 38 -59 40 -50 -26 -123 l-24 -27 -30 37 c-37 46 -111
201 -126 265 -7 27 -15 85 -18 128 l-6 80 44 -6 c24 -4 54 -8 67 -11z m206
-24 c49 -6 98 -15 107 -21 44 -23 61 -81 36 -126 -15 -26 -158 -193 -167 -193
-11 0 -71 111 -91 167 -11 32 -23 88 -26 126 l-6 67 29 -5 c16 -2 69 -9 118
-15z m1026 -13 c0 -78 -57 -242 -104 -302 -16 -19 -19 -17 -101 69 -46 50 -86
100 -90 113 -8 34 19 78 60 97 28 14 177 49 228 55 4 1 7 -14 7 -32z m-967
-344 c-44 -95 -48 -157 -14 -185 46 -37 103 -17 165 57 21 25 40 44 42 42 3
-2 -23 -57 -56 -120 l-62 -117 -31 17 c-43 22 -133 85 -180 125 l-39 33 99
112 c54 61 101 112 105 112 4 1 -9 -34 -29 -76z m937 -129 c0 -27 -191 -174
-226 -174 -14 0 -138 199 -130 208 3 2 23 -11 45 -31 76 -69 120 -81 165 -46
36 29 34 73 -9 167 l-36 77 96 -95 c52 -52 95 -100 95 -106z m-504 164 c30
-20 151 -204 142 -214 -2 -2 -33 -11 -68 -20 -75 -19 -226 -15 -278 7 l-33 14
44 91 c67 137 121 171 193 122z m199 -300 c17 -29 31 -55 33 -59 4 -8 -93 -36
-173 -50 -81 -14 -223 -7 -310 16 -32 9 -61 18 -63 20 -2 2 9 28 25 57 31 58
30 58 128 38 70 -14 196 -8 270 13 28 8 52 15 55 16 3 0 19 -23 35 -51z"/>
<path d="M2142 2065 c-95 -41 -153 -129 -153 -230 0 -180 184 -298 346 -221
191 90 193 345 3 442 -55 28 -143 32 -196 9z m116 -27 c29 -29 7 -78 -35 -78
-35 0 -52 43 -28 70 20 23 45 26 63 8z m-93 -18 c-3 -10 0 -31 8 -46 13 -26
13 -29 -20 -57 -26 -23 -37 -27 -46 -18 -14 14 -50 14 -65 -1 -18 -18 -15 -2
8 43 13 24 39 51 67 70 56 34 56 35 48 9z m158 6 c39 -16 92 -71 106 -108 10
-26 9 -27 -14 -16 -19 8 -31 8 -50 0 -21 -10 -28 -8 -48 12 -13 13 -30 25 -38
28 -12 4 -12 7 0 21 7 10 11 30 9 47 -5 35 -7 34 35 16z m-30 -138 c23 -28 22
-83 -3 -108 -46 -46 -140 -11 -140 53 0 73 96 110 143 55z m-192 -8 c37 -20
18 -80 -26 -80 -42 0 -59 44 -29 74 18 19 28 20 55 6z m319 -4 c28 -35 -11
-93 -47 -70 -36 22 -23 84 17 84 10 0 23 -7 30 -14z m-326 -93 c26 5 35 0 59
-28 24 -29 26 -37 17 -56 -9 -16 -9 -28 -1 -45 13 -30 8 -30 -45 1 -42 24 -73
63 -93 118 -10 26 -10 27 10 16 12 -6 35 -9 53 -6z m296 -3 c14 0 31 5 38 12
19 19 15 -7 -7 -51 -19 -37 -83 -101 -101 -101 -4 0 -15 -3 -24 -6 -12 -5 -14
1 -9 30 3 21 1 42 -6 49 -8 11 -5 16 14 25 14 7 31 23 37 37 8 18 15 22 22 15
5 -5 22 -10 36 -10z m-132 -72 c27 -27 7 -78 -29 -78 -21 0 -49 26 -49 45 0
35 53 58 78 33z"/>
<path d="M10737 2620 c-243 -44 -454 -195 -570 -410 -241 -445 -1 -1002 490
-1142 103 -29 283 -31 393 -4 281 69 509 293 586 576 25 89 24 299 0 390 -41
154 -141 311 -264 414 -76 64 -216 136 -312 161 -75 19 -253 28 -323 15z m283
-46 c7 -8 -3 -91 -26 -214 -6 -33 -7 -32 -25 40 -23 89 -51 124 -101 122 -48
-1 -72 -34 -88 -123 -7 -41 -16 -78 -20 -82 -4 -4 -10 32 -13 80 -4 48 -9 109
-13 135 -6 43 -5 47 17 51 38 9 259 1 269 -9z m-325 -51 c3 -27 8 -55 9 -65 3
-12 -12 -22 -55 -38 -103 -37 -224 -127 -281 -209 l-16 -22 -56 28 c-31 15
-56 32 -56 39 0 20 131 154 189 193 84 57 201 113 253 120 4 1 10 -20 13 -46z
m492 -12 c54 -28 127 -74 163 -104 71 -58 144 -142 136 -155 -2 -4 -27 -18
-54 -31 l-49 -23 -74 74 c-55 55 -96 85 -155 115 -45 22 -86 42 -93 44 -17 6
-3 129 14 129 7 0 57 -22 112 -49z m-287 -41 c11 -11 22 -30 25 -42 36 -162
77 -324 89 -347 22 -42 65 -56 129 -43 29 6 110 14 180 18 139 6 157 1 157
-42 0 -27 -31 -49 -206 -147 -176 -100 -184 -124 -101 -298 93 -195 100 -214
87 -238 -6 -12 -21 -21 -33 -21 -21 0 -127 81 -276 212 -82 72 -135 51 -306
-122 -103 -103 -134 -120 -154 -81 -13 23 -9 37 68 229 34 84 61 165 61 180 0
50 -33 87 -112 125 -116 55 -250 141 -259 165 -6 15 -3 26 8 38 15 15 33 16
145 10 70 -4 142 -12 160 -17 44 -12 105 -11 131 2 43 22 77 62 77 90 0 16 8
66 19 111 10 46 24 111 31 146 18 89 42 110 80 72z m-190 -82 c0 -7 5 -46 10
-87 19 -143 17 -172 -15 -197 -54 -43 -85 -38 -237 33 -43 20 -78 39 -78 43 0
4 30 36 68 72 64 62 111 93 197 130 49 21 55 21 55 6z m417 -29 c58 -28 213
-158 213 -178 0 -13 -214 -111 -241 -111 -57 0 -85 74 -76 200 7 94 13 120 29
120 6 0 39 -14 75 -31z m421 -201 c31 -66 56 -147 65 -210 5 -33 3 -39 -16
-43 -57 -14 -241 -44 -244 -41 -2 2 25 20 61 40 71 40 106 76 106 112 0 68
-40 88 -163 78 -51 -3 -89 -3 -84 2 8 9 228 123 239 124 4 0 20 -28 36 -62z
m-1209 -3 l115 -54 -101 2 c-119 2 -143 -10 -143 -73 0 -44 16 -60 118 -120
40 -23 71 -44 70 -45 -5 -4 -278 31 -283 37 -7 6 19 129 38 184 20 56 56 124
65 124 4 0 58 -25 121 -55z m1279 -377 c-4 -63 -14 -119 -32 -173 -29 -87
-113 -235 -132 -235 -7 0 -29 20 -49 44 l-35 44 40 74 c43 81 80 206 80 273
l0 42 58 10 c31 6 61 11 66 12 5 0 6 -40 4 -91z m-1402 67 c18 -4 22 -14 28
-69 9 -86 39 -177 87 -258 44 -75 44 -81 -11 -133 l-32 -30 -30 35 c-71 84
-130 246 -144 398 l-7 73 44 -6 c24 -4 53 -8 65 -10z m207 -25 c43 -6 82 -10
87 -10 5 0 22 -12 39 -26 58 -48 40 -101 -77 -232 l-67 -73 -19 23 c-50 61
-106 223 -106 309 0 26 3 27 33 23 17 -2 67 -9 110 -14z m1027 -18 c0 -93 -81
-307 -117 -307 -6 0 -47 39 -92 87 -68 74 -81 93 -81 121 0 35 22 63 68 87 18
9 154 40 215 49 4 1 7 -16 7 -37z m-965 -343 c-56 -130 -41 -199 44 -199 30 0
44 9 93 60 32 32 58 56 57 52 0 -4 -26 -58 -57 -119 l-57 -113 -50 27 c-60 31
-141 90 -174 127 l-24 26 19 23 c86 96 178 197 180 197 2 0 -12 -36 -31 -81z
m435 39 c27 -20 140 -187 140 -209 0 -4 -29 -15 -65 -24 -74 -21 -229 -17
-282 6 l-31 14 44 90 c68 140 121 173 194 123z m447 -223 c-36 -33 -90 -74
-121 -92 l-56 -32 -14 22 c-44 68 -114 193 -110 196 2 3 17 -7 32 -21 47 -45
104 -78 133 -78 18 0 36 10 53 31 36 42 36 41 -19 164 l-26 60 96 -95 96 -95
-64 -60z m-249 -79 c17 -30 32 -56 32 -59 0 -2 -35 -15 -77 -28 -103 -31 -290
-34 -400 -5 -40 10 -73 20 -73 22 0 7 62 114 65 114 2 0 34 -7 72 -16 79 -19
220 -14 293 9 25 8 47 15 50 16 3 1 20 -23 38 -53z"/>
<path d="M10762 2059 c-53 -27 -115 -96 -130 -147 -29 -95 -8 -177 63 -247 70
-71 152 -92 247 -63 51 15 121 77 147 131 25 51 28 141 7 191 -20 49 -85 116
-131 137 -56 26 -148 25 -203 -2z m134 -34 c16 -24 16 -27 -2 -46 -22 -24 -52
-21 -70 6 -12 18 -11 24 2 43 20 29 50 28 70 -3z m-84 -62 c8 -9 2 -21 -21
-42 -28 -26 -35 -29 -57 -19 -18 8 -31 8 -49 0 -14 -6 -25 -9 -25 -6 0 27 71
108 115 132 18 10 20 7 23 -21 2 -18 8 -38 14 -44z m174 45 c31 -21 67 -67 80
-101 6 -16 4 -16 -20 -6 -19 9 -33 9 -49 2 -19 -9 -28 -6 -49 12 -15 13 -33
25 -40 28 -10 4 -11 7 0 18 6 7 12 28 12 47 0 38 9 38 66 0z m-64 -115 c66
-59 -6 -163 -89 -128 -83 35 -41 168 47 149 14 -3 33 -12 42 -21z m-184 -15
c7 -7 12 -21 12 -33 0 -45 -60 -63 -80 -24 -23 41 35 90 68 57z m317 -8 c15
-17 16 -24 7 -45 -20 -43 -82 -28 -82 20 0 45 44 59 75 25z m-333 -88 c26 4
38 -1 65 -28 20 -21 29 -36 22 -40 -7 -4 -9 -22 -6 -45 3 -22 3 -39 1 -39 -15
0 -63 33 -91 62 -42 44 -75 129 -38 98 8 -7 29 -10 47 -8z m344 -17 c-12 -47
-106 -135 -145 -135 -7 0 -7 8 -2 23 5 12 5 32 0 45 -8 19 -3 29 25 56 28 26
41 31 69 28 20 -2 38 1 42 8 11 18 18 3 11 -25z m-172 -67 c13 -19 14 -25 2
-43 -7 -11 -24 -20 -36 -20 -12 0 -29 9 -36 20 -12 18 -11 24 2 43 8 12 24 22
34 22 10 0 26 -10 34 -22z"/>
</g>
</svg>
