<?xml version="1.0" standalone="no"?>
<!DOCTYPE svg PUBLIC "-//W3C//DTD SVG 20010904//EN"
 "http://www.w3.org/TR/2001/REC-SVG-20010904/DTD/svg10.dtd">
<svg version="1.0" xmlns="http://www.w3.org/2000/svg"
 width="947.000000pt" height="1280.000000pt" viewBox="0 0 947.000000 1280.000000"
 preserveAspectRatio="xMidYMid meet">
<metadata>
Created by potrace 1.15, written by Peter Selinger 2001-2017
</metadata>
<g transform="translate(0.000000,1280.000000) scale(0.100000,-0.100000)"
fill="#e91e63" stroke="none">
<path d="M4375 12775 c-885 -72 -1700 -381 -2410 -915 -580 -436 -1063 -1025
-1376 -1675 -551 -1147 -607 -2454 -157 -3645 345 -912 989 -1704 1825 -2243
499 -322 1097 -554 1693 -657 695 -119 1376 -82 2065 114 1244 353 2311 1255
2875 2431 277 576 419 1143 450 1792 52 1072 -274 2118 -932 2990 -513 680
-1252 1230 -2058 1531 -624 233 -1314 330 -1975 277z m762 -1059 c263 -32 482
-81 733 -165 162 -55 352 -133 357 -148 8 -24 -169 -380 -298 -599 -133 -226
-318 -487 -417 -591 -74 -77 -189 -128 -372 -163 -362 -71 -870 -37 -1057 70
-75 43 -262 265 -411 487 -141 210 -264 433 -355 643 -74 171 -73 166 -40 178
15 6 73 29 128 52 344 140 679 216 1125 254 93 8 490 -4 607 -18z m-2325 -763
c229 -333 434 -714 543 -1011 37 -102 38 -105 32 -210 -4 -90 -12 -127 -47
-235 -118 -357 -400 -780 -604 -907 -45 -27 -275 -74 -464 -95 -335 -36 -805
-27 -1046 21 l-28 6 7 67 c12 115 54 344 85 467 203 790 656 1472 1303 1963
59 45 112 79 116 77 5 -3 51 -68 103 -143z m4203 -44 c126 -104 335 -314 444
-444 291 -349 520 -763 656 -1184 70 -220 131 -502 151 -702 5 -60 4 -68 -12
-73 -103 -30 -824 -43 -1064 -18 -334 35 -411 61 -544 183 -259 239 -545 757
-563 1020 -7 90 8 145 94 364 126 318 339 694 540 952 l64 83 67 -49 c37 -27
112 -87 167 -132z m-4800 -2999 c264 -24 409 -50 477 -87 188 -103 455 -458
600 -801 56 -131 98 -283 98 -350 0 -131 -186 -573 -375 -892 -88 -148 -127
-207 -243 -362 l-95 -127 -31 21 c-276 194 -592 514 -812 822 -197 278 -373
629 -479 956 -74 231 -137 526 -151 715 l-7 83 69 8 c38 4 105 10 149 14 125
11 678 11 800 0z m5905 -24 c74 -10 139 -21 144 -26 17 -17 -30 -325 -84 -540
-191 -771 -650 -1465 -1291 -1958 l-107 -82 -41 55 c-276 365 -632 1044 -657
1250 -34 288 347 1007 636 1201 58 39 268 83 525 109 180 19 692 13 875 -9z
m-3078 -1531 c248 -32 349 -74 449 -187 269 -301 527 -718 688 -1111 l40 -97
-38 -20 c-62 -31 -227 -95 -346 -133 -598 -193 -1209 -225 -1835 -97 -225 46
-494 132 -683 218 -73 33 -78 37 -72 61 10 44 179 382 265 533 179 311 419
642 513 705 83 56 237 103 413 127 138 19 466 20 606 1z"/>
</g>
</svg>
