<?xml version="1.0" standalone="no"?>
<!DOCTYPE svg PUBLIC "-//W3C//DTD SVG 20010904//EN"
 "http://www.w3.org/TR/2001/REC-SVG-20010904/DTD/svg10.dtd">
<svg version="1.0" xmlns="http://www.w3.org/2000/svg"
 width="1280.000000pt" height="853.000000pt" viewBox="0 0 1280.000000 853.000000"
 preserveAspectRatio="xMidYMid meet">
<metadata>
Created by potrace 1.15, written by Peter Selinger 2001-2017
</metadata>
<g transform="translate(0.000000,853.000000) scale(0.100000,-0.100000)"
fill="#e91e63" stroke="none">
<path d="M8965 7495 c-88 -41 -191 -75 -262 -86 -68 -10 -90 -10 -153 5 -83
18 -116 20 -125 6 -18 -29 146 -248 252 -335 37 -30 98 -70 135 -87 38 -18 64
-36 59 -41 -14 -14 9 -83 35 -108 19 -18 26 -20 38 -10 12 10 17 8 27 -11 19
-35 41 -49 71 -44 15 3 31 -1 37 -8 10 -12 42 -25 124 -52 30 -10 243 -181
252 -203 3 -8 -11 -39 -32 -69 -117 -169 -151 -227 -142 -239 6 -6 32 -26 59
-43 44 -28 72 -37 123 -39 9 -1 17 -7 17 -15 0 -25 -97 -161 -156 -218 -60
-57 -174 -141 -181 -134 -3 2 2 17 10 33 33 63 65 176 77 273 16 125 -27 167
-164 155 -87 -7 -113 2 -120 40 -2 11 -18 49 -35 84 -27 57 -30 69 -24 128 5
49 3 67 -8 73 -11 7 -9 13 8 32 21 23 22 34 7 106 -4 21 -7 22 -132 21 -179
-2 -186 -4 -190 -56 -2 -23 2 -52 8 -64 9 -15 9 -24 1 -32 -6 -6 -11 -23 -11
-38 0 -24 -6 -29 -57 -46 -48 -17 -63 -18 -88 -8 -67 27 -91 26 -130 -5 -20
-16 -50 -47 -66 -69 -16 -23 -34 -41 -41 -41 -6 0 -27 -16 -46 -37 -30 -30
-36 -43 -34 -72 3 -34 0 -37 -40 -53 -24 -10 -48 -18 -55 -18 -6 0 -26 -12
-43 -26 -31 -27 -32 -27 -100 -15 -139 25 -545 122 -675 161 -130 39 -180 50
-305 64 -207 24 -474 29 -660 13 -185 -17 -233 -31 -340 -102 -36 -23 -79 -50
-97 -59 -70 -35 -253 -176 -253 -194 0 -5 -10 -17 -21 -28 -12 -10 -38 -53
-58 -94 -20 -41 -45 -88 -55 -103 -10 -15 -50 -98 -88 -185 -62 -139 -69 -161
-64 -200 5 -38 4 -43 -12 -38 -9 3 -62 10 -117 15 -55 6 -120 12 -145 15 -25
2 -97 11 -160 20 -63 8 -225 26 -360 40 -135 14 -288 31 -340 36 -52 6 -140
15 -195 19 -142 12 -192 36 -241 113 -42 65 -165 198 -208 222 -45 27 -131 54
-209 66 -29 5 -113 20 -187 34 -225 44 -299 55 -450 66 -308 23 -398 30 -490
40 -52 6 -107 8 -121 5 -15 -3 -79 1 -143 10 -93 13 -138 14 -216 6 -54 -5
-109 -15 -121 -22 -12 -6 -41 -13 -63 -14 -271 -18 -400 -43 -526 -101 -99
-46 -207 -153 -248 -247 -13 -30 -17 -183 -5 -190 5 -3 57 0 117 6 94 9 112 8
140 -6 17 -9 65 -31 107 -50 78 -35 97 -56 84 -96 -3 -10 -19 -21 -36 -25 -41
-8 -74 -47 -91 -107 -12 -46 -20 -55 -68 -84 -53 -32 -57 -33 -107 -22 -63 13
-74 5 -131 -87 -20 -34 -43 -68 -51 -76 -8 -8 -27 -35 -43 -60 -72 -116 -161
-253 -244 -378 -49 -75 -93 -142 -97 -149 -14 -22 22 -40 92 -47 81 -8 103 0
127 46 9 17 32 52 53 78 31 40 42 48 78 52 66 8 147 53 226 126 103 95 144
149 207 269 l55 107 125 36 c129 37 237 85 328 145 l52 34 53 -23 c28 -13 80
-32 115 -42 47 -14 62 -23 62 -37 0 -13 -6 -17 -22 -15 -29 4 -32 -13 -7 -41
72 -77 638 -385 839 -456 114 -40 227 -41 385 -2 l109 28 133 -63 c120 -57
132 -65 128 -86 -3 -12 -33 -80 -66 -150 -34 -70 -70 -146 -80 -169 -10 -24
-21 -43 -24 -43 -3 0 -20 7 -37 16 -30 16 -33 16 -49 -5 -9 -11 -20 -21 -23
-21 -4 0 -43 23 -89 51 -303 189 -729 284 -1091 244 -33 -3 -116 -20 -184 -36
-121 -29 -127 -29 -270 -21 -91 6 -152 6 -159 0 -20 -16 -75 -106 -97 -162
-18 -44 -35 -63 -92 -107 -165 -126 -347 -316 -390 -408 -10 -20 -31 -58 -49
-86 -140 -219 -235 -536 -236 -786 0 -156 17 -311 48 -427 14 -53 29 -115 34
-137 28 -137 142 -354 296 -566 102 -140 261 -275 478 -406 133 -80 143 -85
265 -126 277 -94 489 -122 741 -97 258 25 386 58 552 141 335 169 497 308 690
594 26 39 60 87 74 108 l27 38 61 -5 c33 -3 152 -8 265 -11 113 -3 286 -13
385 -22 150 -13 188 -14 230 -3 57 15 107 15 133 1 28 -15 207 -51 282 -56 36
-3 117 -7 180 -10 63 -2 167 -9 230 -16 63 -6 282 -13 485 -14 204 -1 408 -4
455 -8 208 -16 654 -27 860 -22 414 10 865 25 905 31 22 4 138 9 257 13 119 3
220 10 224 14 9 9 -9 88 -63 275 -19 68 -32 131 -30 140 3 10 18 49 32 87 37
100 90 249 146 405 26 74 63 171 81 215 74 172 87 192 182 276 87 76 116 89
81 36 -23 -35 -81 -213 -95 -288 -6 -35 -18 -100 -26 -144 -20 -117 -12 -347
20 -495 35 -166 41 -185 89 -302 189 -450 539 -769 992 -904 215 -65 525 -90
734 -60 62 9 139 23 170 32 166 47 404 164 542 266 203 150 389 383 488 611
80 183 116 289 138 409 23 129 23 360 -1 503 -43 259 -166 524 -343 743 -60
74 -58 81 24 74 l67 -5 -24 33 c-36 50 -176 182 -265 249 -44 33 -94 71 -110
85 -101 82 -375 218 -477 236 -29 6 -125 24 -213 41 -181 35 -244 35 -380 -1
-68 -19 -283 -44 -293 -35 -2 2 39 48 91 102 109 115 121 133 113 178 -6 30
-3 36 36 66 24 19 98 84 166 146 68 62 146 128 173 147 46 31 53 33 87 23 58
-17 201 -15 213 3 16 25 -6 317 -27 351 -2 4 -16 47 -30 95 -14 49 -41 124
-60 167 -64 146 -245 455 -313 535 -15 17 -30 22 -70 22 -28 0 -51 5 -51 10 0
6 10 10 23 10 56 1 53 16 -19 97 -235 266 -445 477 -509 510 -41 21 -96 65
-183 145 -135 125 -345 301 -516 433 -71 54 -154 119 -193 152 -37 30 -41 31
-68 18z m216 -1312 c17 -20 19 -167 3 -183 -14 -14 -43 -1 -92 41 -22 20 -44
29 -67 29 -18 0 -37 6 -42 13 -9 14 -33 80 -30 83 1 1 25 9 52 17 70 22 159
22 176 0z m-318 -70 c23 -45 30 -73 17 -73 -12 0 -40 59 -40 85 0 22 8 18 23
-12z m-603 -62 c0 -5 -20 -16 -45 -24 -53 -19 -57 -14 -12 13 34 21 57 26 57
11z m798 -26 c-2 -5 -12 -9 -23 -7 -32 4 -47 11 -41 21 8 12 68 -1 64 -14z m7
-54 c6 -11 -83 -161 -96 -161 -14 0 -11 144 3 158 14 14 84 16 93 3z m77 -36
c-13 -23 -113 -125 -123 -125 -5 0 7 21 27 47 19 25 44 64 56 86 19 38 21 40
34 22 7 -10 10 -24 6 -30z m-262 20 c0 -8 -7 -15 -15 -15 -8 0 -15 7 -15 15 0
8 7 15 15 15 8 0 15 -7 15 -15z m-87 -57 c23 -63 29 -88 22 -88 -3 0 -28 7
-56 16 -34 11 -53 24 -62 43 -6 14 -22 30 -35 36 -43 19 -19 30 74 34 40 1 42
0 57 -41z m122 -4 c7 -38 1 -54 -14 -38 -12 13 -22 60 -14 68 13 13 21 5 28
-30z m194 -82 c-34 -57 -50 -72 -76 -72 -12 0 -23 3 -23 6 0 12 105 111 113
107 4 -3 -2 -21 -14 -41z m-5511 -1714 c2 -28 -3 -59 -12 -75 -14 -28 -91
-113 -101 -113 -11 0 -4 37 21 119 34 111 40 123 67 119 19 -3 22 -10 25 -50z
m-174 -26 c-8 -26 -17 -59 -21 -75 -8 -39 -21 -43 -50 -15 l-25 25 21 41 c20
39 69 84 83 76 4 -3 0 -26 -8 -52z m446 -84 c0 -7 22 -69 49 -138 27 -69 52
-140 56 -157 6 -30 5 -33 -19 -33 -44 0 -79 -18 -71 -38 25 -59 28 -57 -118
-57 l-134 0 -47 68 c-25 37 -46 73 -46 80 0 8 19 29 43 48 23 19 93 80 154
136 110 101 133 116 133 91z m7117 -463 c71 -35 148 -82 171 -103 37 -34 42
-44 42 -81 0 -36 -12 -103 -26 -149 -2 -8 -31 14 -73 55 -76 75 -199 153 -291
185 -33 11 -60 25 -60 31 0 21 75 126 91 127 9 0 74 -29 146 -65z m-9512 -123
c45 -25 245 -162 245 -167 0 -13 -66 -95 -79 -99 -39 -12 -203 -36 -270 -40
-67 -4 -75 -3 -97 19 -13 13 -24 33 -24 43 0 48 146 262 178 262 9 -1 31 -9
47 -18z m2573 -17 c22 -34 29 -94 16 -141 -7 -28 -47 -33 -178 -25 l-99 6 -27
70 c-48 120 -48 113 7 117 26 2 95 4 153 6 l105 3 23 -36z m6850 -27 c-3 -7
-11 -13 -18 -13 -7 0 -15 6 -17 13 -3 7 4 12 17 12 13 0 20 -5 18 -12z m-1068
-27 c0 -16 3 -36 6 -45 9 -24 -23 -31 -46 -11 -25 23 -25 26 1 59 27 34 39 33
39 -3z m1118 -48 c-5 -26 -38 -29 -38 -4 0 15 6 21 21 21 14 0 19 -5 17 -17z
m-6795 -27 c28 -36 26 -46 -9 -46 -49 0 -65 21 -48 64 10 25 29 19 57 -18z
m6695 17 c-5 -25 -28 -28 -28 -4 0 12 6 21 16 21 9 0 14 -7 12 -17z m501 -9
c61 -51 108 -168 98 -243 -5 -38 -55 -114 -82 -125 -7 -2 -26 20 -46 55 -19
33 -45 77 -58 97 -21 33 -23 41 -13 82 6 25 14 63 18 85 13 86 29 95 83 49z
m-579 -10 c0 -8 -9 -14 -20 -14 -19 0 -27 19 -14 33 10 9 34 -4 34 -19z m230
-48 c0 -15 -24 -28 -34 -19 -13 14 -5 33 14 33 11 0 20 -6 20 -14z m-204 -33
c97 -33 243 -146 280 -216 14 -27 14 -33 -13 -93 -15 -35 -31 -64 -35 -64 -26
0 -59 24 -72 52 -31 65 -93 134 -161 180 -109 73 -111 76 -89 146 5 16 31 15
90 -5z m-1111 -69 c8 -76 2 -141 -12 -155 -5 -5 -30 -10 -57 -11 -64 -4 -76
13 -53 73 24 63 89 169 103 169 8 0 15 -26 19 -76z m-7910 56 c-3 -5 -10 -10
-16 -10 -5 0 -9 5 -9 10 0 6 7 10 16 10 8 0 12 -4 9 -10z m9271 -21 c10 -17
-13 -36 -27 -22 -12 12 -4 33 11 33 5 0 12 -5 16 -11z m103 -3 c9 -10 8 -16
-4 -26 -19 -16 -41 1 -32 24 8 20 21 20 36 2z m-631 -53 c-2 -10 -10 -18 -18
-18 -8 0 -16 8 -18 18 -2 12 3 17 18 17 15 0 20 -5 18 -17z m559 -19 c8 -21
-13 -42 -28 -27 -13 13 -5 43 11 43 6 0 13 -7 17 -16z m-542 -46 c-9 -41 -9
-41 -33 -34 -20 7 -36 42 -26 58 3 4 19 8 35 8 29 0 30 -1 24 -32z m-8695 17
c0 -2 -8 -20 -17 -40 -22 -47 -53 -48 -53 -2 0 19 3 37 7 40 7 8 63 10 63 2z
m8900 -10 c0 -8 -7 -15 -15 -15 -8 0 -15 7 -15 15 0 8 7 15 15 15 8 0 15 -7
15 -15z m-9155 -22 c-11 -27 -26 -90 -39 -163 -10 -59 -14 -67 -56 -98 -25
-18 -97 -82 -160 -141 -63 -59 -122 -110 -132 -113 -21 -8 -28 28 -37 182 -7
119 10 305 30 325 10 10 141 20 313 23 80 2 88 0 81 -15z m9195 -9 c0 -16 -16
-19 -25 -4 -8 13 4 32 16 25 5 -4 9 -13 9 -21z m-9090 -8 c0 -8 -5 -18 -11
-22 -14 -8 -33 11 -25 25 10 16 36 13 36 -3z m9059 -10 c62 -39 118 -111 140
-179 11 -34 18 -64 15 -68 -6 -10 -120 -30 -159 -27 -23 1 -40 9 -46 20 -9 16
-2 278 8 278 2 0 21 -11 42 -24z m76 -4 c0 -18 -20 -15 -23 4 -3 10 1 15 10
12 7 -3 13 -10 13 -16z m401 7 c10 -17 -13 -36 -27 -22 -12 12 -4 33 11 33 5
0 12 -5 16 -11z m-356 -54 c0 -8 -7 -15 -15 -15 -8 0 -15 7 -15 15 0 8 7 15
15 15 8 0 15 -7 15 -15z m430 -8 c0 -8 -3 -17 -7 -20 -9 -9 -34 13 -27 24 8
14 34 11 34 -4z m-9676 -14 c8 -19 -8 -38 -23 -29 -16 10 -13 46 3 46 8 0 17
-8 20 -17z m9276 -29 c0 -16 -16 -19 -25 -4 -8 13 4 32 16 25 5 -4 9 -13 9
-21z m317 10 c4 -11 -1 -22 -12 -30 -23 -17 -39 -4 -30 25 8 25 33 28 42 5z
m-8942 -46 c46 -36 82 -136 55 -153 -6 -4 -24 -4 -40 0 -42 9 -83 65 -83 114
0 66 20 77 68 39z m9272 -11 c35 -35 43 -265 14 -416 -28 -145 -49 -187 -106
-212 -46 -20 -122 -23 -118 -4 2 6 14 42 29 80 14 39 30 86 36 105 16 49 15
325 0 375 -12 39 -12 41 20 68 27 24 40 28 72 23 21 -2 45 -11 53 -19z m-1902
-26 c8 -49 -2 -69 -54 -101 l-40 -25 6 -81 6 -81 -34 -12 c-49 -17 -57 0 -53
107 4 110 12 163 27 184 16 21 74 46 109 47 23 1 27 -4 33 -38z m1285 24 c0
-8 -6 -15 -14 -15 -17 0 -28 14 -19 24 12 12 33 6 33 -9z m20 -50 c0 -8 -7
-15 -15 -15 -16 0 -20 12 -8 23 11 12 23 8 23 -8z m420 -100 c0 -8 -4 -15 -9
-15 -13 0 -22 16 -14 24 11 11 23 6 23 -9z m-110 -15 c0 -13 -7 -20 -20 -20
-19 0 -27 20 -13 33 13 14 33 6 33 -13z m-1256 -26 c9 -8 16 -22 16 -30 0 -8
16 -64 36 -124 31 -95 34 -113 25 -143 -13 -38 -46 -60 -82 -55 -36 5 -90 116
-96 200 -7 79 8 128 45 150 34 22 37 22 56 2z m-8444 -9 c0 -8 14 -49 31 -92
34 -86 35 -48 -6 -338 -23 -162 -48 -235 -80 -235 -21 0 -122 116 -160 185
-36 64 -36 66 -36 175 1 122 8 145 63 197 43 41 159 123 176 123 6 0 12 -7 12
-15z m9730 -23 c0 -13 -12 -22 -22 -16 -10 6 -1 24 13 24 5 0 9 -4 9 -8z
m-1203 -19 c2 -6 -3 -13 -12 -16 -10 -5 -15 0 -15 14 0 21 21 22 27 2z m177
-56 c-3 -26 -67 -107 -84 -104 -19 3 -57 80 -65 134 l-7 43 79 -28 c59 -21 78
-32 77 -45z m849 39 c29 -6 37 -11 33 -24 -2 -9 -10 -42 -17 -72 -14 -66 -74
-174 -132 -241 -35 -40 -48 -48 -78 -49 -20 0 -50 5 -68 11 -29 10 -31 14 -25
43 4 17 28 54 53 82 51 55 105 157 115 216 4 21 14 44 22 53 13 13 18 13 37 1
12 -8 39 -17 60 -20z m-9292 -16 c5 0 9 -4 9 -10 0 -5 -13 -10 -30 -10 -29 0
-38 9 -23 24 4 3 13 4 21 1 7 -3 18 -5 23 -5z m9129 -5 c0 -8 -7 -15 -15 -15
-16 0 -20 12 -8 23 11 12 23 8 23 -8z m-850 -9 c0 -8 -4 -17 -9 -21 -12 -7
-24 12 -16 25 9 15 25 12 25 -4z m800 1 c0 -54 -129 -212 -168 -205 -9 2 -27
24 -40 50 -21 42 -22 50 -10 74 10 22 32 33 108 60 111 38 110 38 110 21z
m310 -2 c0 -8 -7 -15 -15 -15 -16 0 -20 12 -8 23 11 12 23 8 23 -8z m120 -20
c0 -8 -4 -15 -9 -15 -13 0 -22 16 -14 24 11 11 23 6 23 -9z m-392 -23 c2 -7
-3 -12 -12 -12 -9 0 -16 7 -16 16 0 17 22 14 28 -4z m-824 -23 c-8 -14 -34
-11 -34 4 0 8 3 17 7 20 9 9 34 -13 27 -24z m-8283 1 c10 -6 26 -24 34 -40 14
-26 14 -31 1 -36 -32 -12 -84 40 -72 72 6 17 11 17 37 4z m8037 -22 c-7 -19
-38 -22 -38 -4 0 10 9 16 21 16 12 0 19 -5 17 -12z m1047 -6 c0 -18 -20 -15
-23 4 -3 10 1 15 10 12 7 -3 13 -10 13 -16z m355 -2 c0 -5 -7 -10 -15 -10 -8
0 -15 5 -15 10 0 6 7 10 15 10 8 0 15 -4 15 -10z m105 1 c7 -12 -12 -24 -25
-16 -11 7 -4 25 10 25 5 0 11 -4 15 -9z m-1785 -21 c0 -6 11 -22 24 -35 19
-19 31 -22 62 -19 l39 5 23 -73 c38 -122 93 -217 178 -308 31 -33 32 -37 24
-82 -14 -71 -36 -118 -57 -118 -20 0 -108 69 -145 115 -81 99 -181 276 -202
357 -16 62 -8 117 22 151 17 19 32 22 32 7z m558 -8 c2 -7 -6 -12 -17 -12 -21
0 -27 11 -14 24 9 9 26 2 31 -12z m-7370 -21 c3 -8 -1 -12 -9 -9 -7 2 -15 10
-17 17 -3 8 1 12 9 9 7 -2 15 -10 17 -17z m8107 10 c3 -5 1 -13 -5 -16 -15 -9
-43 3 -35 15 8 13 32 13 40 1z m-7985 -20 c2 -1 -1 -6 -7 -12 -13 -13 -63 -4
-63 11 0 8 19 8 70 1z m6940 -16 c0 -7 -7 -16 -15 -19 -20 -7 -33 23 -14 34
16 10 29 4 29 -15z m320 15 c0 -5 -5 -10 -11 -10 -5 0 -7 5 -4 10 3 6 8 10 11
10 2 0 4 -4 4 -10z m-8400 -36 c0 -14 -21 -19 -33 -7 -9 9 13 34 24 27 5 -3 9
-12 9 -20z m8685 16 c3 -5 18 -10 33 -10 33 0 42 -6 71 -48 28 -40 22 -61 -15
-56 -145 15 -214 31 -214 47 0 5 15 25 33 43 32 34 79 46 92 24z m388 -21
c-17 -17 -37 -1 -22 17 8 10 15 12 23 4 7 -7 7 -13 -1 -21z m477 6 c0 -8 -4
-15 -10 -15 -5 0 -10 7 -10 15 0 8 5 15 10 15 6 0 10 -7 10 -15z m-162 -17
c-7 -19 -38 -22 -38 -4 0 10 9 16 21 16 12 0 19 -5 17 -12z m-353 -16 c0 -18
-20 -15 -23 4 -3 10 1 15 10 12 7 -3 13 -10 13 -16z m-8945 -17 c0 -16 -27
-32 -37 -22 -3 4 -3 13 0 22 8 20 37 20 37 0z m1260 0 c9 -11 9 -22 0 -49 -16
-48 -29 -56 -73 -46 -41 9 -121 59 -111 69 5 5 131 36 160 40 6 0 17 -6 24
-14z m-1342 -44 c31 -27 75 -60 97 -73 35 -22 43 -34 64 -99 26 -81 52 -139
124 -271 51 -94 59 -128 28 -128 -36 0 -155 31 -244 63 -78 28 -87 34 -82 52
11 34 26 89 32 113 8 31 -24 29 -39 -3 -6 -14 -15 -25 -19 -25 -4 0 -14 -12
-21 -27 -18 -38 -41 -39 -79 -5 l-32 29 20 84 c32 134 87 339 91 339 2 0 29
-22 60 -49z m8065 34 c1 -5 -6 -11 -15 -13 -11 -2 -18 3 -18 13 0 17 30 18 33
0z m1427 -5 c0 -5 -7 -10 -15 -10 -8 0 -15 5 -15 10 0 6 7 10 15 10 8 0 15 -4
15 -10z m-8352 -31 c23 -32 75 -63 116 -69 l41 -5 -33 -17 c-18 -9 -70 -24
-115 -34 -45 -9 -89 -20 -97 -24 -8 -4 -55 -11 -105 -15 l-90 -7 33 30 c37 35
38 39 16 71 -16 22 -15 24 17 51 31 26 50 32 139 43 37 4 63 -4 78 -24z m7400
19 c-7 -19 -38 -22 -38 -4 0 10 9 16 21 16 12 0 19 -5 17 -12z m-368 -11 c0
-14 -20 -37 -32 -37 -10 0 -11 34 -1 43 11 12 33 8 33 -6z m415 -17 c0 -22
-29 -18 -33 3 -3 14 1 18 15 15 10 -2 18 -10 18 -18z m775 12 c0 -13 -12 -22
-22 -16 -10 6 -1 24 13 24 5 0 9 -4 9 -8z m-714 -13 c3 -6 -1 -18 -10 -27 -15
-15 -18 -15 -26 -2 -5 9 -5 19 2 27 13 16 25 17 34 2z m54 -19 c0 -11 -7 -20
-15 -20 -8 0 -15 9 -15 20 0 11 7 20 15 20 8 0 15 -9 15 -20z m63 4 c9 -10 -4
-34 -18 -34 -17 0 -28 17 -20 30 7 11 28 13 38 4z m47 -9 c0 -8 -7 -15 -15
-15 -8 0 -15 7 -15 15 0 8 7 15 15 15 8 0 15 -7 15 -15z m-8690 -5 c0 -5 -4
-10 -10 -10 -5 0 -10 5 -10 10 0 6 5 10 10 10 6 0 10 -4 10 -10z m7950 -10 c0
-11 -6 -20 -13 -20 -19 0 -27 10 -20 26 8 21 33 17 33 -6z m434 13 c36 -36
238 -73 305 -55 54 13 58 11 99 -44 39 -54 33 -74 -30 -94 -48 -14 -235 -15
-283 -1 -16 5 -47 12 -67 16 -22 3 -42 14 -48 25 -16 29 -13 160 3 160 8 0 17
-3 21 -7z m1016 -28 c0 -8 -7 -15 -15 -15 -8 0 -15 7 -15 15 0 8 7 15 15 15 8
0 15 -7 15 -15z m-1374 -44 c-10 -16 -36 -13 -36 3 0 17 21 27 34 16 4 -5 5
-13 2 -19z m-7296 -16 c0 -8 -7 -15 -15 -15 -8 0 -15 7 -15 15 0 8 7 15 15 15
8 0 15 -7 15 -15z m420 -8 c0 -5 -66 -81 -130 -150 -69 -74 -99 -91 -137 -76
-39 15 -152 92 -152 104 0 29 31 44 134 64 61 11 139 29 175 40 61 17 110 25
110 18z m8385 -23 c10 -10 13 -24 9 -37 -9 -28 -69 -109 -126 -169 -42 -45
-48 -48 -95 -48 -47 0 -106 20 -118 41 -4 5 36 54 87 110 51 55 95 105 96 110
6 16 129 11 147 -7z m-245 -18 c0 -16 -21 -36 -37 -36 -16 0 -17 32 -2 47 13
13 39 6 39 -11z m-120 -21 c0 -8 -6 -15 -14 -15 -17 0 -28 14 -19 24 12 12 33
6 33 -9z m80 -75 c0 -21 -24 -28 -35 -10 -8 14 3 30 21 30 8 0 14 -9 14 -20z
m-8895 -22 c29 -46 53 -57 70 -35 10 14 21 17 47 12 20 -4 59 0 93 9 l59 15
65 -37 c135 -78 132 -117 -18 -179 -55 -24 -110 -43 -121 -43 -48 0 -240 71
-286 106 -30 22 -94 147 -82 159 3 3 16 2 28 -3 23 -9 90 5 106 21 12 12 18 8
39 -25z m8168 26 c9 -10 -4 -34 -19 -34 -8 0 -14 6 -14 13 0 22 19 35 33 21z
m225 -21 c5 -17 -26 -29 -40 -15 -6 6 -7 15 -3 22 9 14 37 9 43 -7z m406 11
c22 -9 20 -34 -3 -34 -19 0 -35 23 -24 34 8 7 8 7 27 0z m-709 -14 c3 -6 -1
-13 -10 -16 -19 -8 -30 0 -20 15 8 14 22 14 30 1z m545 -14 c0 -8 -5 -18 -11
-22 -14 -8 -33 11 -25 25 10 16 36 13 36 -3z m85 4 c3 -5 2 -10 -4 -10 -5 0
-13 5 -16 10 -3 6 -2 10 4 10 5 0 13 -4 16 -10z m-818 -34 c-4 -9 -11 -16 -17
-16 -17 0 -24 31 -9 41 18 11 34 -5 26 -25z m350 8 c4 -13 -25 -23 -44 -17 -7
3 -13 11 -13 19 0 18 51 16 57 -2z m228 6 c-3 -5 -15 -10 -26 -10 -11 0 -17 5
-14 10 3 6 15 10 26 10 11 0 17 -4 14 -10z m105 -53 c0 -8 -3 -17 -7 -20 -9
-9 -34 13 -27 24 8 14 34 11 34 -4z m-609 -109 c53 -20 60 -27 84 -76 33 -67
30 -96 -9 -100 -57 -7 -220 52 -266 96 -35 34 -44 125 -16 167 l15 23 68 -44
c37 -24 93 -54 124 -66z m229 96 c0 -9 -7 -14 -17 -12 -25 5 -28 28 -4 28 12
0 21 -6 21 -16z m216 5 c10 -17 -13 -36 -27 -22 -12 12 -4 33 11 33 5 0 12 -5
16 -11z m-468 -27 c3 -16 -2 -22 -17 -22 -26 0 -36 17 -20 36 16 19 33 13 37
-14z m175 11 c9 -9 -13 -34 -24 -27 -14 8 -11 34 4 34 8 0 17 -3 20 -7z m562
-3 c4 -6 1 -17 -5 -26 -15 -18 -42 0 -33 22 6 16 29 19 38 4z m-169 -21 c9
-16 -12 -33 -31 -25 -14 5 -15 9 -5 21 15 18 26 19 36 4z m293 -21 c53 -28 64
-63 30 -89 -47 -36 -185 -100 -269 -124 -102 -29 -252 -49 -300 -40 -55 11
-110 43 -121 73 -6 15 -17 40 -25 56 -8 16 -13 30 -12 31 2 2 32 0 68 -4 154
-15 428 34 526 94 48 30 52 30 103 3z m-539 -1 c0 -19 -10 -27 -26 -20 -21 8
-17 33 6 33 11 0 20 -6 20 -13z m95 -7 c4 -6 1 -17 -5 -25 -16 -19 -52 -2 -44
20 7 17 40 20 49 5z m-177 -37 c-5 -26 -38 -29 -38 -4 0 15 6 21 21 21 14 0
19 -5 17 -17z m252 3 c0 -8 -5 -18 -11 -22 -14 -8 -33 11 -25 25 10 16 36 13
36 -3z"/>
</g>
</svg>
